<?xml version="1.0" encoding="utf-8"?>
<!-- Generator: Adobe Illustrator 14.0.0, SVG Export Plug-In . SVG Version: 6.00 Build 43363)  -->
<!DOCTYPE svg PUBLIC "-//W3C//DTD SVG 1.1//EN" "http://www.w3.org/Graphics/SVG/1.1/DTD/svg11.dtd">
<svg version="1.1" id="Ebene_1" xmlns="http://www.w3.org/2000/svg" xmlns:xlink="http://www.w3.org/1999/xlink" x="0px" y="0px"
	 width="712.03px" height="145.869px" viewBox="-145.085 324.969 712.03 145.869"
	 enable-background="new -145.085 324.969 712.03 145.869" xml:space="preserve">
<g>
	<polygon fill="#FDB913" points="-103.16,366.837 -72.908,366.837 -50.078,408.453 -27.337,366.837 2.726,366.837 2.726,429.502 
		-15.876,429.502 -14.938,381.112 -42.748,429.502 -57.967,429.502 -85.31,381.112 -84.743,429.502 -103.16,429.502 	"/>
	<path fill="#FDB913" d="M269.774,433.312l-4.944-4.945c8.172-8.174,12.672-19.037,12.672-30.589c0-11.555-4.5-22.419-12.672-30.597
		l4.944-4.94c9.495,9.495,14.723,22.113,14.723,35.538C284.497,411.195,279.27,423.816,269.774,433.312"/>
	<path fill="#FDB913" d="M279.916,443.451l-4.944-4.943c10.883-10.883,16.874-25.35,16.874-40.731
		c0-15.388-5.991-29.854-16.874-40.735l4.944-4.942c12.202,12.202,18.923,28.422,18.923,45.678
		C298.839,415.027,292.118,431.25,279.916,443.451"/>
	<path fill="#FDB913" d="M289.405,452.939l-4.945-4.945c13.419-13.416,20.809-31.25,20.809-50.219
		c0-18.968-7.39-36.806-20.809-50.224l4.945-4.942c14.737,14.738,22.853,34.329,22.853,55.166
		C312.258,418.611,304.143,438.203,289.405,452.939"/>
</g>
<g>
	<polygon fill="#FFFFFF" points="52.615,407.801 16.816,366.839 41.15,366.839 62.292,392.764 83.242,366.839 107.107,366.839 
		71.783,407.801 71.783,429.5 52.615,429.5 	"/>
	<path fill="#FFFFFF" d="M431.877,405.289c-0.095,9.301-0.375,12.406-1.788,15.221c-2.442,5.074-7.326,7.518-16.443,8.357
		c-3.285,0.287-13.528,0.473-24.611,0.473c-17.664,0-23.962-0.938-28.944-4.133c-6.195-3.947-7.986-10.525-7.986-29.124
		c0-16.441,1.886-22.366,8.455-26.216c5.553-3.19,11.938-4.137,29.224-4.137c22.926,0,28.565,0.571,33.823,3.2
		c5.073,2.537,7.428,7.991,7.428,17.191v2.068h-18.23c-0.378-6.762-1.974-7.42-18.322-7.42c-6.573,0-14.466,0.189-15.785,0.472
		c-3.47,0.562-5.449,1.877-6.577,4.13c-0.843,1.973-1.126,4.984-1.126,12.591c0,15.128,1.315,16.159,19.731,16.159
		c14.659,0,16.155-0.094,18.885-1.221c2.726-1.131,3.765-3.102,3.765-7.611H431.877z"/>
	<polygon fill="#FFFFFF" points="448.784,414.496 496.137,380.392 450.006,380.392 450.006,366.206 524.041,366.206 524.041,380.58 
		476.129,414.68 524.797,414.68 524.797,428.869 448.784,428.869 	"/>
	<polygon fill="#FFFFFF" points="190.536,366.837 115.654,366.837 115.654,382.339 143.56,382.339 143.56,429.502 162.633,429.502 
		162.633,382.339 190.536,382.339 	"/>
	<path fill="#FFFFFF" d="M252.987,397.776c0,10.333-8.409,18.749-18.747,18.749c-10.335,0-18.743-8.416-18.743-18.749
		c0-10.336,8.408-18.745,18.743-18.745C244.578,379.031,252.987,387.44,252.987,397.776 M234.24,361.551
		c-19.976,0-36.222,16.252-36.222,36.226c0,19.978,16.247,36.226,36.222,36.226s36.226-16.248,36.226-36.226
		C270.466,377.803,254.216,361.551,234.24,361.551"/>
</g>
</svg>
